<?xml version="1.0" encoding="UTF-8" standalone="no"?><!DOCTYPE svg PUBLIC "-//W3C//DTD SVG 1.1//EN" "http://www.w3.org/Graphics/SVG/1.1/DTD/svg11.dtd"><svg width="135px" height="100%" viewBox="0 0 298 144" version="1.1" xmlns="http://www.w3.org/2000/svg" xmlns:xlink="http://www.w3.org/1999/xlink" xml:space="preserve" style="fill-rule:evenodd;clip-rule:evenodd;stroke-linejoin:round;stroke-miterlimit:1.41421;"><g id="Logo"><g id="weisses-Logo-Kopie"><path id="Logo-Kopie-15" d="M18.044,130.52l0,-7.947l18.162,-0.047c-0.094,5.665 -0.219,10.858 -4.319,15.28c-3.684,4.005 -7.902,6.021 -13.291,6.021c-10.594,0 -18.707,-8.126 -18.595,-18.089c0.106,-9.634 7.772,-18.248 18.687,-18.248c6.034,0 14.082,4.405 16.632,11.824l-12.954,0c-0.885,-1.107 -1.627,-1.328 -3.653,-1.328c-4.516,0 -6.566,4.469 -6.566,8.661c0,3.822 2.396,7.162 6.496,7.162c1.98,0 4.511,-1.169 5.113,-3.289l-5.712,0Zm120.316,12.599l-12.205,0l0.027,-34.653l16.814,-0.033l5.113,18.239c0.231,-1.518 0.461,-3.131 0.875,-4.603l3.917,-13.636l16.797,0.033l0,34.653l-12.207,0l-0.168,-18.977c-0.23,1.151 -0.459,2.346 -0.827,3.453l-5.023,15.568l-7.371,0l-4.514,-14.693c-0.368,-1.472 -0.691,-2.856 -1.198,-4.328c-0.091,1.374 -0.03,18.821 -0.03,18.977Zm117.643,-34.686l0,9.49l-11.002,-0.046l0,3.315l10.738,0.007l0,9.026l-10.849,0.076l0,3.407l10.738,0l0,9.402l-22.977,0.053l0,-34.73l23.352,0Zm-64.628,34.686l-12.206,0l0.027,-34.653l16.812,-0.033l5.113,18.239c0.232,-1.518 0.463,-3.131 0.876,-4.603l3.914,-13.636l16.797,0.033l-0.003,34.653l-12.204,0l-0.167,-18.977c-0.23,1.151 -0.46,2.346 -0.828,3.453l-5.021,15.568l-7.369,0l-4.515,-14.693c-0.368,-1.472 -0.691,-2.856 -1.199,-4.328c-0.091,1.374 -0.027,18.821 -0.027,18.977Zm-99.052,-34.686l13.958,0l12.39,34.73l-13.358,0l-1.151,-4.329l-9.535,0l-1.014,4.329l-13.357,0l12.067,-34.73Zm187.944,0c7.71,0.001 14.238,3.315 14.238,12.054c0,5.245 -1.998,7.451 -6.622,9.291c0.634,0.507 1.406,1.059 2.087,2.072l7.436,11.269l-14.327,0l-5.67,-11.132l0,11.132l-12.151,0l0,-34.686l15.009,0Zm-222.125,0c7.727,0.001 14.269,3.315 14.269,12.054c0,5.245 -2,7.451 -6.636,9.291c0.636,0.507 1.41,1.059 2.091,2.072l7.453,11.269l-14.36,0l-5.681,-11.132l0,11.132l-12.178,0l0,-34.686l15.042,0Zm43.808,22.154l-1.473,-6.124c-0.369,-1.474 -0.6,-2.995 -0.83,-4.467l-0.46,0l-2.303,10.591l0,0l0,0.001l0,-0.001l5.066,0Zm176.321,-6.788c2.043,-0.001 4.08,-0.325 4.08,-2.897c0,-2.669 -1.859,-2.992 -3.99,-2.992l-0.951,0l0,5.889l0.861,0Zm-222.129,0c2.048,-0.001 4.091,-0.325 4.091,-2.897c0,-2.669 -1.865,-2.992 -4,-2.992l-0.955,0l0,5.889l0.864,0Zm93.407,-25.666l-3.079,0l0,-44.624c0,-6.986 -3.019,-13.32 -9.992,-18.941l-25.599,-17.587c0,0 -1.291,2.982 -0.937,4.891c0.378,2.037 1.433,3.124 3.017,4.371c0.729,0.52 20.709,13.216 20.709,13.216c4.162,2.082 8.118,9.049 8.118,15.194l0,43.084l-2.81,-0.332l0,-40.983c0,-3.152 -1.561,-8.013 -7.285,-11.551l-27.889,-17.066c0,0 -0.984,2.66 -0.729,4.371c0.392,2.632 1.618,3.36 4.163,5.411c0.624,0.312 22.686,12.279 22.686,12.279c4.475,2.603 4.37,5.678 4.37,9.886l0,36.424l-2.705,-0.75l0,-34.736c0,-2.709 -1.247,-5.204 -4.579,-6.347l-27.286,-13.946c0,0 -0.565,3.014 0.02,4.785c0.731,2.213 1.434,2.821 3.956,4.477c0.936,0.415 20.501,8.74 20.501,8.74c1.457,0.625 2.607,1.768 2.604,3.96l-0.042,31.066c-16.476,-7.918 -27.848,-24.844 -27.848,-44.346c0,-27.105 21.973,-49.079 49.08,-49.079c27.106,0 49.08,21.974 49.08,49.079c0,19.479 -11.414,36.238 -27.857,44.169l0,-30.889c0,-2.193 1.148,-3.335 2.603,-3.96c0,0 19.565,-8.325 20.502,-8.74c2.522,-1.657 3.253,-2.256 3.955,-4.477c0.554,-1.747 -0.062,-4.702 -0.062,-4.702l-27.205,13.862c-3.33,1.143 -4.578,3.639 -4.578,6.347l0,34.57l-2.705,0.917l0,-36.424c0,-4.208 -0.104,-7.283 4.371,-9.886c0,0 22.062,-11.968 22.685,-12.279c2.546,-2.051 3.792,-2.775 4.163,-5.411c0.238,-1.686 -0.811,-4.289 -0.811,-4.289l-27.807,16.984c-5.724,3.538 -7.285,8.399 -7.285,11.551l0,40.816l-2.811,0.499l0,-43.083c0,-6.145 3.956,-13.113 8.118,-15.194c0,0 19.981,-12.697 20.71,-13.217c1.586,-1.247 2.653,-2.331 3.017,-4.371c0.338,-1.887 -1.019,-4.806 -1.019,-4.806l-25.518,17.503c-6.971,5.62 -9.99,11.954 -9.99,18.94l0,44.624Z" style="fill:#fff;"/></g></g></svg>