<svg xmlns="http://www.w3.org/2000/svg" height="120px" width="180px" overflow="visible" viewBox="-84.3345 -28.5435 730.899 171.261">
<path d="M141.407 33.514h29.692l10.952 41.698h.74c.526-3.473 1.054-7.16 2.002-10.523l8.945-31.175h29.385l13.053 79.397h-27.902l-3.901-43.488h-.522c-.525 2.631-1.054 5.367-1.896 7.895l-11.477 35.594h-16.847l-10.319-33.595c-.843-3.369-1.583-6.527-1.795-9.895h-.948c-.207 3.16-.417 6.422-.734 9.576l-3.373 33.912H128.56z" fill="#ACACAC"/>
<path d="M278.881 84.165l-3.368-14.006c-.842-3.373-1.371-6.846-1.9-10.215h-1.048l-5.268 24.221zm-19.062 28.746h-30.534l27.585-79.397h31.91l28.327 79.397h-30.541l-2.627-9.902h-21.803zm135.726-46.754c-.217 12.953-.217 23.797-9.587 33.902-8.426 9.166-21.372 14.115-33.693 14.115-24.216 0-43.8-14.953-43.8-40.436 0-25.901 19.054-41.488 44.012-41.488 13.794 0 32.751 6.846 38.958 20.429l-26.956 9.901c-2.21-4.002-6.315-6.109-10.951-6.109-10.313 0-16.005 8.845-16.005 18.425 0 8.736 5.476 16.953 14.846 16.953 4.532 0 10.322-2.107 11.688-6.949h-13.054V66.157zm2.155-32.643h27.698l25.9 44.017h.839c-1.154-6.635-2.42-13.48-2.42-20.218V33.514h27.585v79.397h-27.585l-25.375-41.697h-.841c.944 5.471 1.788 10.633 1.788 15.902v25.795h-27.59V33.514z" fill="#ACACAC"/>
<path d="M524.01 84.165l-3.373-14.006c-.841-3.373-1.367-6.846-1.897-10.215h-1.051l-5.265 24.221zm-19.06 28.746h-30.536l27.584-79.397h31.907l28.325 79.397h-30.536l-2.632-9.902h-21.795z" fill="#ACACAC"/>
<path d="M85.657 33.729l-21.901-.004-4.025 11.031 24.82 68.233 29.917.004z"/><path d="M64.261 0c-8.027 0-14.533 6.504-14.533 14.536 0 8.022 6.506 14.531 14.533 14.531s14.531-6.509 14.531-14.532C78.792 6.504 72.288 0 64.261 0" fill="#E22E2F"/>
<path d="M22.293 51.759L0 112.989l44.598-.004zm28.463-18.03l-21.898-.004-4.02 11.031 24.819 68.233 29.917.004z"/></svg>